<mxfile host="app.diagrams.net" agent="Mozilla/5.0 (Windows NT 10.0; Win64; x64) AppleWebKit/537.36 (KHTML, like Gecko) Chrome/136.0.0.0 Safari/537.36 Edg/136.0.0.0" version="27.1.1">
  <diagram name="페이지-1" id="XdDl3KywXiWoA0PWY9M1">
    <mxGraphModel dx="1144" dy="1951" grid="1" gridSize="10" guides="1" tooltips="1" connect="1" arrows="1" fold="1" page="1" pageScale="1" pageWidth="827" pageHeight="1169" math="0" shadow="0">
      <root>
        <mxCell id="0" />
        <mxCell id="1" parent="0" />
        <mxCell id="OcUVZfXGKlw6HqMaFj40-1" value="관리자" style="shape=umlActor;verticalLabelPosition=bottom;verticalAlign=top;html=1;outlineConnect=0;" vertex="1" parent="1">
          <mxGeometry x="90" y="80" width="60" height="120" as="geometry" />
        </mxCell>
        <mxCell id="OcUVZfXGKlw6HqMaFj40-5" style="rounded=0;orthogonalLoop=1;jettySize=auto;html=1;entryX=0;entryY=0.5;entryDx=0;entryDy=0;" edge="1" parent="1" source="OcUVZfXGKlw6HqMaFj40-2" target="OcUVZfXGKlw6HqMaFj40-4">
          <mxGeometry relative="1" as="geometry" />
        </mxCell>
        <mxCell id="OcUVZfXGKlw6HqMaFj40-19" style="rounded=0;orthogonalLoop=1;jettySize=auto;html=1;" edge="1" parent="1" source="OcUVZfXGKlw6HqMaFj40-2" target="OcUVZfXGKlw6HqMaFj40-12">
          <mxGeometry relative="1" as="geometry" />
        </mxCell>
        <mxCell id="OcUVZfXGKlw6HqMaFj40-31" style="rounded=0;orthogonalLoop=1;jettySize=auto;html=1;entryX=0;entryY=0.5;entryDx=0;entryDy=0;" edge="1" parent="1" source="OcUVZfXGKlw6HqMaFj40-2" target="OcUVZfXGKlw6HqMaFj40-22">
          <mxGeometry relative="1" as="geometry" />
        </mxCell>
        <mxCell id="OcUVZfXGKlw6HqMaFj40-37" style="rounded=0;orthogonalLoop=1;jettySize=auto;html=1;entryX=0;entryY=0.5;entryDx=0;entryDy=0;" edge="1" parent="1" source="OcUVZfXGKlw6HqMaFj40-2" target="OcUVZfXGKlw6HqMaFj40-32">
          <mxGeometry relative="1" as="geometry" />
        </mxCell>
        <mxCell id="OcUVZfXGKlw6HqMaFj40-2" value="일반사용자" style="shape=umlActor;verticalLabelPosition=bottom;verticalAlign=top;html=1;outlineConnect=0;" vertex="1" parent="1">
          <mxGeometry x="90" y="465" width="60" height="120" as="geometry" />
        </mxCell>
        <mxCell id="OcUVZfXGKlw6HqMaFj40-3" value="frame" style="shape=umlFrame;whiteSpace=wrap;html=1;pointerEvents=0;" vertex="1" parent="1">
          <mxGeometry x="200" y="-410" width="780" height="1610" as="geometry" />
        </mxCell>
        <mxCell id="OcUVZfXGKlw6HqMaFj40-4" value="회원 기능" style="ellipse;whiteSpace=wrap;html=1;strokeColor=light-dark(#0000FF,#0000FF);" vertex="1" parent="1">
          <mxGeometry x="360" y="350" width="140" height="40" as="geometry" />
        </mxCell>
        <mxCell id="OcUVZfXGKlw6HqMaFj40-9" style="rounded=0;orthogonalLoop=1;jettySize=auto;html=1;entryX=0.5;entryY=1;entryDx=0;entryDy=0;strokeColor=light-dark(#0000FF,#0000FF);" edge="1" parent="1" source="OcUVZfXGKlw6HqMaFj40-6" target="OcUVZfXGKlw6HqMaFj40-4">
          <mxGeometry relative="1" as="geometry" />
        </mxCell>
        <mxCell id="OcUVZfXGKlw6HqMaFj40-6" value="회원가입하기" style="ellipse;whiteSpace=wrap;html=1;strokeColor=light-dark(#0000FF,#0000FF);" vertex="1" parent="1">
          <mxGeometry x="260" y="445" width="140" height="40" as="geometry" />
        </mxCell>
        <mxCell id="OcUVZfXGKlw6HqMaFj40-10" style="rounded=0;orthogonalLoop=1;jettySize=auto;html=1;entryX=0.5;entryY=1;entryDx=0;entryDy=0;strokeColor=light-dark(#0000FF,#0000FF);" edge="1" parent="1" source="OcUVZfXGKlw6HqMaFj40-7" target="OcUVZfXGKlw6HqMaFj40-4">
          <mxGeometry relative="1" as="geometry" />
        </mxCell>
        <mxCell id="OcUVZfXGKlw6HqMaFj40-7" value="회원정보수정하기" style="ellipse;whiteSpace=wrap;html=1;strokeColor=light-dark(#0000FF,#0000FF);" vertex="1" parent="1">
          <mxGeometry x="420" y="445" width="140" height="40" as="geometry" />
        </mxCell>
        <mxCell id="OcUVZfXGKlw6HqMaFj40-11" style="rounded=0;orthogonalLoop=1;jettySize=auto;html=1;entryX=0.5;entryY=1;entryDx=0;entryDy=0;strokeColor=light-dark(#0000FF,#0000FF);" edge="1" parent="1" source="OcUVZfXGKlw6HqMaFj40-8" target="OcUVZfXGKlw6HqMaFj40-4">
          <mxGeometry relative="1" as="geometry" />
        </mxCell>
        <mxCell id="OcUVZfXGKlw6HqMaFj40-8" value="회원 탈퇴하기" style="ellipse;whiteSpace=wrap;html=1;strokeColor=light-dark(#0000FF,#0000FF);" vertex="1" parent="1">
          <mxGeometry x="580" y="445" width="140" height="40" as="geometry" />
        </mxCell>
        <mxCell id="OcUVZfXGKlw6HqMaFj40-12" value="예약 기능" style="ellipse;whiteSpace=wrap;html=1;strokeColor=light-dark(#FF3333,#FF3333);" vertex="1" parent="1">
          <mxGeometry x="360" y="520" width="140" height="40" as="geometry" />
        </mxCell>
        <mxCell id="OcUVZfXGKlw6HqMaFj40-16" style="rounded=0;orthogonalLoop=1;jettySize=auto;html=1;entryX=0.5;entryY=1;entryDx=0;entryDy=0;strokeColor=light-dark(#FF3333,#FF3333);" edge="1" parent="1" source="OcUVZfXGKlw6HqMaFj40-13" target="OcUVZfXGKlw6HqMaFj40-12">
          <mxGeometry relative="1" as="geometry" />
        </mxCell>
        <mxCell id="OcUVZfXGKlw6HqMaFj40-13" value="예약하기" style="ellipse;whiteSpace=wrap;html=1;strokeColor=light-dark(#FF3333,#FF3333);" vertex="1" parent="1">
          <mxGeometry x="260" y="640" width="140" height="40" as="geometry" />
        </mxCell>
        <mxCell id="OcUVZfXGKlw6HqMaFj40-17" style="rounded=0;orthogonalLoop=1;jettySize=auto;html=1;entryX=0.5;entryY=1;entryDx=0;entryDy=0;strokeColor=light-dark(#FF3333,#FF3333);" edge="1" parent="1" source="OcUVZfXGKlw6HqMaFj40-14" target="OcUVZfXGKlw6HqMaFj40-12">
          <mxGeometry relative="1" as="geometry" />
        </mxCell>
        <mxCell id="OcUVZfXGKlw6HqMaFj40-14" value="예약정보 수정하기" style="ellipse;whiteSpace=wrap;html=1;strokeColor=light-dark(#FF3333,#FF3333);" vertex="1" parent="1">
          <mxGeometry x="420" y="640" width="140" height="40" as="geometry" />
        </mxCell>
        <mxCell id="OcUVZfXGKlw6HqMaFj40-18" style="rounded=0;orthogonalLoop=1;jettySize=auto;html=1;entryX=0.5;entryY=1;entryDx=0;entryDy=0;strokeColor=light-dark(#FF3333,#FF3333);" edge="1" parent="1" source="OcUVZfXGKlw6HqMaFj40-15" target="OcUVZfXGKlw6HqMaFj40-12">
          <mxGeometry relative="1" as="geometry" />
        </mxCell>
        <mxCell id="OcUVZfXGKlw6HqMaFj40-15" value="예약 삭제하기" style="ellipse;whiteSpace=wrap;html=1;strokeColor=light-dark(#FF3333,#FF3333);" vertex="1" parent="1">
          <mxGeometry x="570" y="640" width="140" height="40" as="geometry" />
        </mxCell>
        <mxCell id="OcUVZfXGKlw6HqMaFj40-21" style="rounded=0;orthogonalLoop=1;jettySize=auto;html=1;entryX=0.5;entryY=1;entryDx=0;entryDy=0;strokeColor=light-dark(#FF3333,#FF3333);" edge="1" parent="1" source="OcUVZfXGKlw6HqMaFj40-20" target="OcUVZfXGKlw6HqMaFj40-12">
          <mxGeometry relative="1" as="geometry" />
        </mxCell>
        <mxCell id="OcUVZfXGKlw6HqMaFj40-20" value="예약 조회하기" style="ellipse;whiteSpace=wrap;html=1;strokeColor=light-dark(#FF3333,#FF3333);" vertex="1" parent="1">
          <mxGeometry x="730" y="640" width="140" height="40" as="geometry" />
        </mxCell>
        <mxCell id="OcUVZfXGKlw6HqMaFj40-22" value="게스트 하우스 조회" style="ellipse;whiteSpace=wrap;html=1;strokeColor=light-dark(#99FF33,#99FF33);" vertex="1" parent="1">
          <mxGeometry x="340" y="750" width="140" height="40" as="geometry" />
        </mxCell>
        <mxCell id="OcUVZfXGKlw6HqMaFj40-27" style="rounded=0;orthogonalLoop=1;jettySize=auto;html=1;entryX=0.5;entryY=1;entryDx=0;entryDy=0;strokeColor=light-dark(#99FF33,#99FF33);" edge="1" parent="1" source="OcUVZfXGKlw6HqMaFj40-23" target="OcUVZfXGKlw6HqMaFj40-22">
          <mxGeometry relative="1" as="geometry" />
        </mxCell>
        <mxCell id="OcUVZfXGKlw6HqMaFj40-23" value="게스트 하우스 전체&lt;div&gt;조회하기&lt;/div&gt;" style="ellipse;whiteSpace=wrap;html=1;strokeColor=light-dark(#99FF33,#99FF33);" vertex="1" parent="1">
          <mxGeometry x="220" y="860" width="140" height="40" as="geometry" />
        </mxCell>
        <mxCell id="OcUVZfXGKlw6HqMaFj40-28" style="rounded=0;orthogonalLoop=1;jettySize=auto;html=1;entryX=0.5;entryY=1;entryDx=0;entryDy=0;strokeColor=light-dark(#99FF33,#99FF33);" edge="1" parent="1" source="OcUVZfXGKlw6HqMaFj40-24" target="OcUVZfXGKlw6HqMaFj40-22">
          <mxGeometry relative="1" as="geometry" />
        </mxCell>
        <mxCell id="OcUVZfXGKlw6HqMaFj40-24" value="게스트 하우스 지역별&lt;div&gt;조회하기&lt;/div&gt;" style="ellipse;whiteSpace=wrap;html=1;strokeColor=light-dark(#99FF33,#99FF33);" vertex="1" parent="1">
          <mxGeometry x="380" y="860" width="140" height="40" as="geometry" />
        </mxCell>
        <mxCell id="OcUVZfXGKlw6HqMaFj40-29" style="rounded=0;orthogonalLoop=1;jettySize=auto;html=1;entryX=0.5;entryY=1;entryDx=0;entryDy=0;strokeColor=light-dark(#99FF33,#99FF33);" edge="1" parent="1" source="OcUVZfXGKlw6HqMaFj40-25" target="OcUVZfXGKlw6HqMaFj40-22">
          <mxGeometry relative="1" as="geometry" />
        </mxCell>
        <mxCell id="OcUVZfXGKlw6HqMaFj40-25" value="게스트 하우스 특성&lt;span style=&quot;background-color: transparent; color: light-dark(rgb(0, 0, 0), rgb(255, 255, 255));&quot;&gt;별&lt;/span&gt;&lt;div&gt;&lt;div&gt;조회하기&lt;/div&gt;&lt;/div&gt;" style="ellipse;whiteSpace=wrap;html=1;strokeColor=light-dark(#99FF33,#99FF33);" vertex="1" parent="1">
          <mxGeometry x="540" y="860" width="140" height="40" as="geometry" />
        </mxCell>
        <mxCell id="OcUVZfXGKlw6HqMaFj40-30" style="rounded=0;orthogonalLoop=1;jettySize=auto;html=1;entryX=0.5;entryY=1;entryDx=0;entryDy=0;strokeColor=light-dark(#99FF33,#99FF33);" edge="1" parent="1" source="OcUVZfXGKlw6HqMaFj40-26" target="OcUVZfXGKlw6HqMaFj40-22">
          <mxGeometry relative="1" as="geometry" />
        </mxCell>
        <mxCell id="OcUVZfXGKlw6HqMaFj40-26" value="게스트 하우스 남은 인원수&amp;nbsp;&lt;div&gt;조회하기&lt;/div&gt;" style="ellipse;whiteSpace=wrap;html=1;strokeColor=light-dark(#99FF33,#99FF33);" vertex="1" parent="1">
          <mxGeometry x="700" y="860" width="140" height="40" as="geometry" />
        </mxCell>
        <mxCell id="OcUVZfXGKlw6HqMaFj40-32" value="요금 관련" style="ellipse;whiteSpace=wrap;html=1;strokeColor=light-dark(#FFFF00,#FFFF33);" vertex="1" parent="1">
          <mxGeometry x="340" y="950" width="140" height="40" as="geometry" />
        </mxCell>
        <mxCell id="OcUVZfXGKlw6HqMaFj40-35" style="rounded=0;orthogonalLoop=1;jettySize=auto;html=1;entryX=0.5;entryY=1;entryDx=0;entryDy=0;strokeColor=light-dark(#FFFF00,#FFFF33);" edge="1" parent="1" source="OcUVZfXGKlw6HqMaFj40-33" target="OcUVZfXGKlw6HqMaFj40-32">
          <mxGeometry relative="1" as="geometry" />
        </mxCell>
        <mxCell id="OcUVZfXGKlw6HqMaFj40-33" value="등급 확인 후 할인 적용" style="ellipse;whiteSpace=wrap;html=1;strokeColor=light-dark(#FFFF66,#FFFF33);" vertex="1" parent="1">
          <mxGeometry x="240" y="1040" width="140" height="40" as="geometry" />
        </mxCell>
        <mxCell id="OcUVZfXGKlw6HqMaFj40-36" style="rounded=0;orthogonalLoop=1;jettySize=auto;html=1;entryX=0.5;entryY=1;entryDx=0;entryDy=0;strokeColor=light-dark(#FFFF00,#FFFF33);" edge="1" parent="1" source="OcUVZfXGKlw6HqMaFj40-34" target="OcUVZfXGKlw6HqMaFj40-32">
          <mxGeometry relative="1" as="geometry" />
        </mxCell>
        <mxCell id="OcUVZfXGKlw6HqMaFj40-34" value="주말일 때 추가 요금&lt;div&gt;적용하기&lt;/div&gt;" style="ellipse;whiteSpace=wrap;html=1;strokeColor=light-dark(#FFFF66,#FFFF33);" vertex="1" parent="1">
          <mxGeometry x="440" y="1040" width="140" height="40" as="geometry" />
        </mxCell>
      </root>
    </mxGraphModel>
  </diagram>
</mxfile>
